<?xml version="1.0" encoding="iso-8859-1"?>
<!-- Uploaded to: SVG Repo, www.svgrepo.com, Generator: SVG Repo Mixer Tools -->
<svg fill="#000000" version="1.1" id="Layer_1" xmlns="http://www.w3.org/2000/svg" xmlns:xlink="http://www.w3.org/1999/xlink" 
	 viewBox="0 0 327.187 327.187" xml:space="preserve">
<g>
	<g>
		<g>
			<path d="M326.747,212.883c-0.576-1.36-1.704-2.444-3.052-3.092c1.3-0.904,3.004-2.248,2.816-4.516
				c-0.204-2.424-2.552-3.872-4.792-4.228c-1.744-0.272-3.552-0.1-5.204,0.456l-0.576-5.108c-0.06-0.512-0.148-1.28-0.652-2.02
				c-0.7-1.036-2.008-1.612-3.384-1.548c-2.504,0.144-4.308,2.032-5.352,5.616l-1.488,5.088c-1.96-1.908-4.308-3.604-7.056-5.112
				c-4.14-11.064-13.216-20.124-25.416-23.616L77.239,118.871c-13.612-3.896-27.58,0.144-37.16,9.268
				c-5.792-0.876-10.856-0.772-15.244,0.428c-0.072,0.02-0.136,0.06-0.212,0.08l0.004-5.824c0.008-3.72-1.168-6.064-3.484-6.96
				c-1.308-0.512-2.732-0.344-3.712,0.44c-0.708,0.564-1.024,1.308-1.216,1.76l-1.952,4.628c-1.412-1.04-3.08-1.752-4.808-2.032
				c-2.268-0.352-4.94,0.3-5.828,2.592c-0.82,2.104,0.388,3.844,1.408,5.152c-1.456,0.216-2.832,0.912-3.76,2.028
				c-1.888,2.268-1.652,5.82,0.524,7.916c1.872,1.8,4.44,2.148,6.932,2.252l1.756,0.096c-2.876,6.308-2.928,14.024-0.084,20.776
				c2.584,6.136,7.16,12.028,13.74,17.788c-1.156,2.084-2.12,4.312-2.804,6.7c-4.86,16.964,4.996,34.728,21.964,39.584
				l207.892,59.524c2.9,0.832,5.852,1.244,8.792,1.244c5.368,0,10.688-1.372,15.532-4.056c7.496-4.16,12.916-10.96,15.26-19.148
				c1.68-5.864,1.612-11.948-0.068-17.688c4.156-1.544,7.808-3.448,10.88-5.788c5.96-4.536,9.82-11.468,10.32-18.552
				c0.056-0.78,0.068-1.56,0.04-2.328c1.58,0.528,3.14,1.104,4.736,1.544c1.356,0.38,2.756,0.696,4.132,0.696
				c1.08,0,2.14-0.196,3.152-0.7C326.675,218.967,327.915,215.639,326.747,212.883z M66.647,121.379c3.14,0,6.328,0.428,9.492,1.336
				l195.352,55.932c9.452,2.708,16.832,9.136,21.052,17.236c-2.36-0.928-4.92-1.772-7.74-2.512
				c-17.524-4.608-35.688-4.756-53.272-4.852c-1.98-5.588-9.016-6.768-14.004-7.116c-4.012-0.252-7.68,1.048-10.34,3.732
				c-0.268,0.272-0.532,0.644-0.8,1.056c-4.472-0.736-9.292-1.628-14.38-2.672c-1.612-4.472-3.408-8.6-6.048-10.16
				c-6.456-3.812-12.756-3.432-17.728,1.08c-0.636,0.58-1.284,1.68-2.04,3.08c-4.388-1.128-8.796-2.32-13.176-3.564
				c-1.772-4.92-3.708-9.596-6.572-11.264c-6.132-3.568-12.156-3.292-16.52,0.748c-0.616,0.572-1.3,1.504-2.052,2.604
				c-4.492-1.572-8.78-3.176-12.784-4.804c-1.556-3.916-4.32-7.072-8.252-9.26c-4.7-2.612-9.224-2.988-13.128-1.18
				c-0.66-0.364-1.32-0.728-1.984-1.092c-13.796-7.672-28.064-15.6-43.768-19.912c-1.06-0.292-2.024-0.452-3.04-0.688
				C50.995,124.195,58.651,121.379,66.647,121.379z M224.235,203.411c-0.332-6.584-1.28-10.092-5.532-10.98
				c-0.2-0.044-0.396-0.064-0.592-0.064c-2.832,0-5.284,4.212-7.46,7.956c-0.896,1.54-1.74,2.996-2.316,3.584
				c-0.652,0.672-1.372,1.22-2.128,1.696l-19.388-5.552c-1.4-2.152-2.02-4.628-1.996-7.8c0-0.092-0.648-9.44-5.04-10.52
				c-1.324-0.316-2.62-0.116-3.756,0.596c-1.64,1.032-2.932,3.16-3.46,5.688c-0.72,3.44-2.208,5.368-4.412,6.692l-20.128-5.764
				c-1.716-2.516-2.68-5.256-2.504-7.676c0.124-5.916-0.296-8.836-4.684-9.992c-3.924-1.016-5.608,2.032-6.824,4.272l-0.276,0.508
				c-0.62,1.068-1.152,2.036-1.636,2.916c-1.124,2.056-1.964,3.472-3,4.552l-20.924-5.992c-1.004-1.948-1.68-4.072-1.844-6.304
				c-0.112-1.564-0.868-9.412-4.588-10.452c-1.704-0.472-3.2-0.348-4.448,0.376c-1.32,0.764-2.268,2.192-2.752,4.116
				c-0.796,3.184-2.128,5.536-3.94,7.232l-21.636-6.196c-1.348-2.428-2.112-5.008-1.94-7.392c-0.34-4.824-1.728-7.476-4.372-8.352
				c-1.192-0.408-2.516,0.636-4.924,2.52c-2.248,1.756-6.024,4.672-7.6,3.888c-2.688-1.38-3.248-3.672-1.812-7.436
				c2.276-5.96,8.78-9.144,15.116-7.404c6.624,1.812,11.4,7.936,11.612,14.896c0,0.088,0.696,9.22,4.948,10.3
				c4.024,1.024,5.804-1.924,6.78-4.24c1.256-2.98,2.664-6.06,4.78-8.084c3.804-3.644,8.832-4.024,14.172-1.052
				c5.3,2.948,8.164,7.656,8.516,14.044c0.296,5.424,1.992,8.728,4.896,9.544c3.304,0.924,6.508-3.976,9.328-8.308
				c1.152-1.768,2.24-3.44,2.992-4.136c4.904-4.544,10.776-2.236,13.836-0.448c2.548,1.484,4.548,7.152,6.316,12.152
				c1.984,5.616,3.7,10.468,6.5,11.452c4.148,1.448,7.248-4.348,9.496-8.592c0.804-1.516,1.636-3.088,2.14-3.544
				c5.352-4.852,11.14-3.12,15.052-0.804c2.488,1.468,4.396,6.984,6.08,11.848c2,5.768,3.724,10.752,6.764,11.432
				c4.252,0.948,7.08-4.488,9.14-8.472c0.764-1.476,1.488-2.872,2.004-3.396c2.212-2.236,5.144-3.316,8.568-3.06
				c4.652,0.32,12.104,4.052,12.628,7.328c0.52,3.276,0.24,1.432,0.392,2.424c1.14,7.524,2.564,14.952,6.296,15.936
				c5.356,1.408,6.768-3.356,7.528-5.916c1.756-5.944,6.544-9.468,12.452-9.148c5.384,0.276,11.656,3.62,13.536,10.472
				c1.176,4.296,1.024,7.764-0.416,9.524c-0.616,0.752-1.42,1.14-2.356,1.048c-1.02-0.072-2.664-3.26-3.752-5.372
				c-1.764-3.424-3.428-6.66-5.852-6.992c-3.312-0.476-5.916,4.268-7.956,8.076c-0.664,1.24-1.288,2.408-1.696,2.884
				c-0.996,1.156-2.188,2.032-3.484,2.692l-16.912-4.836C225.607,208.903,224.347,205.599,224.235,203.411z M224.411,210.819
				l-15.456-4.424c0.344-0.284,0.688-0.572,1.008-0.904c0.764-0.788,1.636-2.288,2.648-4.024c1.404-2.412,3.972-6.832,5.484-6.832
				c0.052,0,0.1,0.008,0.148,0.016c2.296,0.48,3.38,1.876,3.732,8.88C222.071,205.507,222.923,208.195,224.411,210.819z
				 M183.791,199.191l-12.86-3.684c1.832-1.56,3.172-3.728,3.86-7.024c0.4-1.908,1.336-3.528,2.452-4.232
				c0.62-0.392,1.276-0.496,2.004-0.312c2.064,0.508,3.224,6.5,3.312,8.3C182.535,194.919,182.943,197.179,183.791,199.191z
				 M144.911,188.055l-13.388-3.836c0.892-1.148,1.672-2.5,2.576-4.152c0.472-0.864,0.996-1.812,1.616-2.884l0.296-0.548
				c1.412-2.6,2.24-3.712,4.252-3.16c2.504,0.66,3.128,1.508,3,7.692C143.103,183.383,143.735,185.755,144.911,188.055z
				 M105.287,176.711l-12.228-3.5c1.656-1.884,2.916-4.284,3.692-7.384c0.232-0.916,0.708-2.132,1.688-2.704
				c0.7-0.408,1.608-0.456,2.696-0.148c1.552,0.432,2.704,5.172,2.94,8.428C104.211,173.235,104.643,175.015,105.287,176.711z
				 M68.347,141.835c7.34,3.496,14.464,7.444,21.46,11.332c0.088,0.048,0.172,0.096,0.26,0.144c-0.02,0.02-0.044,0.036-0.068,0.056
				c-2.428,2.324-3.952,5.64-5.304,8.84c-1.264,3.004-2.476,3.348-4.132,2.924c-1.948-0.5-3.188-6.332-3.244-8.176
				C77.127,150.631,73.595,144.951,68.347,141.835z M116.319,165.991c2.976,1.16,6.104,2.308,9.32,3.44
				c-1.908,2.852-4.456,6.312-5.868,5.936c-1.832-0.516-3.016-3.248-3.248-7.548C116.487,167.191,116.399,166.591,116.319,165.991z
				 M154.635,178.479c3.208,0.892,6.424,1.764,9.636,2.596c-1.616,2.84-3.592,5.656-5.396,5.04
				C157.423,185.607,155.971,182.147,154.635,178.479z M193.523,187.827c3.776,0.752,7.42,1.436,10.856,2.02
				c-1.68,3.212-3.868,7.044-6.228,6.536C196.539,196.023,194.907,191.767,193.523,187.827z M232.459,192.495
				c0.02,0,0.036,0,0.052,0C232.587,193.011,232.603,193.215,232.459,192.495z M232.539,192.495
				c6.132,0.036,12.328,0.088,18.532,0.344c-4.272,1.504-7.572,5.004-9.036,9.964c-1.18,3.996-2.288,5.036-4.772,4.364
				c-2.6-0.684-4.076-10.416-4.632-14.084C232.599,192.867,232.571,192.699,232.539,192.495z M8.911,136.639
				c-1.716-0.068-3.428-0.26-4.352-1.144c-0.672-0.648-0.784-1.848-0.228-2.516c0.396-0.476,1.144-0.692,1.86-0.644
				c0.108-0.02,0.192-0.072,0.308-0.076c1.5-0.06,3.172-0.664,3.272-2.328c0.02-0.34-0.792-2.932-1.396-3.704
				c-0.376-0.476-0.308-1.768,0.468-1.64c1.792,0.284,7.964,4.216,8.28,1.576c-0.504-3.764,3.024-9.832,3.54-3.348l-0.008,7.372
				c-3.14,1.56-5.784,3.824-7.836,6.62c-0.768,0.008-1.284-0.02-2.008-0.064L8.911,136.639z M14.067,159.943
				c-2.484-5.9-2.404-12.632,0.212-18.016c1.62-3.34,4.952-7.704,11.608-9.532c2.2-0.604,4.604-0.908,7.24-0.908
				c4.028,0,8.596,0.708,13.788,2.128c6.228,1.708,12.248,4.04,18.128,6.696c-0.336-0.116-0.656-0.272-1.004-0.368
				c-7.472-2.052-15.136,1.728-17.832,8.776c-1.86,4.876-0.888,8.328,2.892,10.264c2.876,1.48,6.84-1.628,10.028-4.116
				c1.096-0.856,2.6-2.032,2.816-2.152c0.668,0.22,2.436,0.804,2.828,6.192c-0.16,2.116,0.3,4.36,1.216,6.544l-5.052-1.448
				c-13.216-3.784-26.884,1.384-34.592,11.864C20.495,170.659,16.359,165.383,14.067,159.943z M286.939,262.019
				c-2.052,7.16-6.796,13.108-13.356,16.752c-6.564,3.644-14.116,4.512-21.28,2.468L44.411,221.711
				c-14.848-4.252-23.472-19.792-19.22-34.64c4.248-14.848,19.788-23.468,34.64-19.22l207.892,59.528
				c7.164,2.052,13.112,6.792,16.752,13.356C288.115,247.299,288.991,254.859,286.939,262.019z M307.959,220.815
				c-0.42,5.956-3.696,11.816-8.764,15.672c-2.752,2.092-6.036,3.808-9.796,5.216c-0.424-0.984-0.9-1.956-1.428-2.904
				c-4.16-7.496-10.96-12.916-19.148-15.256l-21.176-6.064c0.804-0.596,1.56-1.276,2.24-2.064c0.572-0.664,1.192-1.82,1.98-3.288
				c1.336-2.496,3.764-7.176,5.644-6.9c1.256,0.172,2.928,3.416,4.148,5.784c1.78,3.448,3.316,6.432,5.604,6.596
				c1.696,0.1,3.184-0.548,4.272-1.872c1.944-2.368,2.248-6.476,0.852-11.568c-1.296-4.72-4.68-8.456-9.072-10.484
				c6.904,0.68,13.764,1.76,20.484,3.528c8.608,2.26,14.768,5.36,18.832,9.476C307.511,211.623,308.219,217.091,307.959,220.815z
				 M322.211,216.747c-1.112,0.564-2.796,0.196-4.452-0.26c-2.16-0.6-4.292-1.332-6.404-2.088c-0.616-2.568-1.708-5-3.224-7.224
				l2.232-7.616c0.5-1.708,1.14-2.716,1.62-2.716c0.004,0-2.144-0.276,0.012,0s0.856,8.1,2.928,9.184
				c1.808,0.944,4.38-2.32,6.164-2.024c0.812,0.128,1.224,1.976,0.072,2.716c-1.38,0.884-3.696,2.792-3.152,4.532
				s2.432,1.896,2.432,1.896c0.972-0.232,2.272,0.4,2.652,1.288C323.435,215.247,323.019,216.351,322.211,216.747z"/>
			
				<rect x="221.623" y="268.593" transform="matrix(-0.9596 -0.2812 0.2812 -0.9596 382.7576 594.3844)" width="24.807" height="2.272"/>
			<path d="M201.835,261.231c5.1,1.56,10.196,3.128,15.292,4.712l0.672-2.164c-5.096-1.584-10.196-3.152-15.3-4.72L201.835,261.231z
				"/>
			<path d="M48.971,216.679c47.024,13.26,97.564,27.676,148.52,43.228l0.66-2.172c-50.972-15.556-101.528-29.976-148.56-43.236
				L48.971,216.679z"/>
			<path d="M195.819,46.847c0.96,0.912,1.832,1.74,2.616,2.632c9.98,11.452,10.984,28.848,2.336,40.46
				c-7.056,9.476-8.412,20.436-4.028,32.576c0.16,0.448,0.364,0.884,0.572,1.316l2.98,6.608l-0.024-6.664
				c-0.036-9.608,4.268-17.408,13.152-23.84c1.768-1.28,3.34-2.764,5.044-4.372c3.936-3.712,6.116-8.456,6.468-14.104
				c1.08-17.104-9.816-31.46-29.144-38.4l-6.072-2.184l4.596,4.528C194.843,45.911,195.343,46.387,195.819,46.847z M222.107,81.279
				c-0.312,4.976-2.14,8.972-5.768,12.396c-1.456,1.372-2.96,2.792-4.584,3.964c-7.584,5.492-12.1,11.932-13.68,19.56
				c-2.364-9.524-0.72-17.92,4.968-25.564c9.172-12.324,8.412-30.58-1.628-43.012C210.443,53.339,223.247,63.259,222.107,81.279z"/>
			<path d="M169.379,133.723l3.016,2.664l-0.86-4.992c-0.868-5.128-1.22-10.52,2.068-15.188c2.06-2.928,4.9-5.912,8.932-9.384
				c8.228-7.076,11.184-15.632,8.792-25.436c-2.416-9.884-14.308-19.62-27.076-22.172l-7.32-1.46l6.272,4.044
				c9.352,6.028,9.612,13.16,8.504,19.968c-0.992,6.12-4.012,11.936-9.22,17.772c-2.444,2.74-5.288,6.488-5.584,11.252
				C156.283,120.931,163.727,128.735,169.379,133.723z M159.727,110.963c0.188-3.04,1.688-5.98,4.868-9.536
				c5.584-6.252,8.824-12.536,9.912-19.208c0.904-5.504,1.036-12.208-4.304-18.224c8.996,3.732,16.64,10.98,18.372,18.068
				c2.148,8.808-0.432,16.204-7.888,22.616c-4.22,3.628-7.208,6.772-9.408,9.9c-3.196,4.548-3.508,9.468-2.972,14.268
				C162.031,122.587,159.363,116.967,159.727,110.963z"/>
		</g>
	</g>
</g>
</svg>